<svg xmlns="http://www.w3.org/2000/svg" version="1.1" xmlns:xlink="http://www.w3.org/1999/xlink" xmlns:svgjs="http://svgjs.com/svgjs" width="1000" height="1000"><rect width="1000" height="1000" rx="200" ry="200" fill="#555555"></rect><g transform="matrix(1.5625,0,0,1.5625,100,100)"><svg xmlns="http://www.w3.org/2000/svg" version="1.1" xmlns:xlink="http://www.w3.org/1999/xlink" xmlns:svgjs="http://svgjs.com/svgjs" width="512" height="512"><svg enable-background="new 0 0 512 512" id="Layer_1" version="1.1" viewBox="0 0 512 512" xml:space="preserve" xmlns="http://www.w3.org/2000/svg" xmlns:xlink="http://www.w3.org/1999/xlink"><g><g><linearGradient gradientUnits="userSpaceOnUse" id="SVGID_1_" x1="0.0000038" x2="512" y1="256" y2="256"><stop offset="0" style="stop-color:#00AEEE"></stop><stop offset="1" style="stop-color:#0095DA"></stop></linearGradient><circle cx="256" cy="256" fill="url(#SVGID_1_)" r="256"></circle><linearGradient gradientUnits="userSpaceOnUse" id="SVGID_2_" x1="42.6666679" x2="469.3333435" y1="256.0005188" y2="256.0005188"><stop offset="0" style="stop-color:#0095DA"></stop><stop offset="1" style="stop-color:#00AEEE"></stop></linearGradient><path d="M256,469.3338623c-117.6314697,0-213.3333282-95.7018738-213.3333282-213.3333435    c0-117.6309204,95.7018585-213.333313,213.3333282-213.333313c117.636261,0,213.3333435,95.7024002,213.3333435,213.333313    C469.3333435,373.6319885,373.636261,469.3338623,256,469.3338623z" fill="url(#SVGID_2_)"></path></g><g><polygon opacity="0.3" points="299.6554565,149 299.6554565,202.4586639 353.1152039,202.4586639   "></polygon><path d="M289.6554565,212.4586639V144H169.8847961v240h188.2304077V212.4586639H289.6554565z     M215.8421326,352.0383911l-20.1465607-20.1514587l7.0702972-7.0704041l13.0762634,13.0810852l29.6922607-29.6917419    l7.0704041,7.0698547L215.8421326,352.0383911z M215.8421326,287.683197l-20.1465607-20.1466675l7.0702972-7.0704041    l13.0762634,13.0762634l29.6922607-29.6922607l7.0704041,7.06987L215.8421326,287.683197z M328.8549194,341.2282715h-68.0180054    v-10h68.0180054V341.2282715z M328.8549194,276.8725281h-68.0180054v-10h68.0180054V276.8725281z" opacity="0.3"></path></g><g><polygon fill="#FFFFFF" points="291.6554565,141 291.6554565,194.4586639 345.1152039,194.4586639   "></polygon><path d="M281.6554565,204.4586639V136H161.8847961v240h188.2304077V204.4586639H281.6554565z     M207.8421326,344.0383911l-20.1465607-20.1514587l7.0702972-7.0704041l13.0762634,13.0810852l29.6922607-29.6917419    l7.0704041,7.0698547L207.8421326,344.0383911z M207.8421326,279.683197l-20.1465607-20.1466675l7.0702972-7.0703888    l13.0762634,13.0762482l29.6922607-29.6922607l7.0704041,7.06987L207.8421326,279.683197z M320.8549194,333.2282715h-68.0180206    v-10h68.0180206V333.2282715z M320.8549194,268.8725281h-68.0180206v-10h68.0180206V268.8725281z" fill="#FFFFFF"></path></g></g></svg></svg></g></svg>